
      <svg xmlns="http://www.w3.org/2000/svg" version="1.1" width="1440" height="798" style="display: block;"><polygon stroke-linejoin="round" stroke-miterlimit="1" stroke-width="1" points="415,-9 4,-9 104,-3" style="fill:#8b571c;stroke:#8b571c;"></polygon><polygon stroke-linejoin="round" stroke-miterlimit="1" stroke-width="1" points="1410,-9 1338,-9 1377,154" style="fill:#824e13;stroke:#824e13;"></polygon><polygon stroke-linejoin="round" stroke-miterlimit="1" stroke-width="1" points="1439,165 1410,-9 1377,154" style="fill:#844f14;stroke:#844f14;"></polygon><polygon stroke-linejoin="round" stroke-miterlimit="1" stroke-width="1" points="1439,-9 1410,-9 1439,165" style="fill:#875217;stroke:#875217;"></polygon><polygon stroke-linejoin="round" stroke-miterlimit="1" stroke-width="1" points="1439,398 1403,349 1376,389" style="fill:#865217;stroke:#865217;"></polygon><polygon stroke-linejoin="round" stroke-miterlimit="1" stroke-width="1" points="1439,398 1376,389 1396,466" style="fill:#834f14;stroke:#834f14;"></polygon><polygon stroke-linejoin="round" stroke-miterlimit="1" stroke-width="1" points="1439,804 1195,803 1179,804" style="fill:#784308;stroke:#784308;"></polygon><polygon stroke-linejoin="round" stroke-miterlimit="1" stroke-width="1" points="1439,804 1439,752 1294,741" style="fill:#834e13;stroke:#834e13;"></polygon><polygon stroke-linejoin="round" stroke-miterlimit="1" stroke-width="1" points="1439,804 1294,741 1195,803" style="fill:#855116;stroke:#855116;"></polygon><polygon stroke-linejoin="round" stroke-miterlimit="1" stroke-width="1" points="1439,187 1439,165 1377,154" style="fill:#7e490e;stroke:#7e490e;"></polygon><polygon stroke-linejoin="round" stroke-miterlimit="1" stroke-width="1" points="1439,187 1377,154 1342,229" style="fill:#855015;stroke:#855015;"></polygon><polygon stroke-linejoin="round" stroke-miterlimit="1" stroke-width="1" points="1439,187 1342,229 1353,280" style="fill:#834e13;stroke:#834e13;"></polygon><polygon stroke-linejoin="round" stroke-miterlimit="1" stroke-width="1" points="1439,187 1353,280 1403,349" style="fill:#865116;stroke:#865116;"></polygon><polygon stroke-linejoin="round" stroke-miterlimit="1" stroke-width="1" points="1439,187 1403,349 1439,398" style="fill:#814d12;stroke:#814d12;"></polygon><polygon stroke-linejoin="round" stroke-miterlimit="1" stroke-width="1" points="1439,738 1294,741 1439,752" style="fill:#855116;stroke:#855116;"></polygon><polygon stroke-linejoin="round" stroke-miterlimit="1" stroke-width="1" points="1439,468 1396,466 1344,521" style="fill:#834e13;stroke:#834e13;"></polygon><polygon stroke-linejoin="round" stroke-miterlimit="1" stroke-width="1" points="1439,452 1396,466 1439,468" style="fill:#895419;stroke:#895419;"></polygon><polygon stroke-linejoin="round" stroke-miterlimit="1" stroke-width="1" points="1439,452 1439,398 1396,466" style="fill:#875217;stroke:#875217;"></polygon><polygon stroke-linejoin="round" stroke-miterlimit="1" stroke-width="1" points="1439,692 1284,720 1294,741" style="fill:#834f14;stroke:#834f14;"></polygon><polygon stroke-linejoin="round" stroke-miterlimit="1" stroke-width="1" points="1439,692 1281,699 1284,720" style="fill:#855015;stroke:#855015;"></polygon><polygon stroke-linejoin="round" stroke-miterlimit="1" stroke-width="1" points="1439,692 1344,521 1281,699" style="fill:#865217;stroke:#865217;"></polygon><polygon stroke-linejoin="round" stroke-miterlimit="1" stroke-width="1" points="1439,692 1294,741 1439,738" style="fill:#814c11;stroke:#814c11;"></polygon><polygon stroke-linejoin="round" stroke-miterlimit="1" stroke-width="1" points="1439,692 1439,468 1344,521" style="fill:#855015;stroke:#855015;"></polygon><polygon stroke-linejoin="round" stroke-miterlimit="1" stroke-width="1" points="1294,741 1242,757 1195,803" style="fill:#855015;stroke:#855015;"></polygon><polygon stroke-linejoin="round" stroke-miterlimit="1" stroke-width="1" points="1344,521 1220,595 1281,699" style="fill:#875318;stroke:#875318;"></polygon><polygon stroke-linejoin="round" stroke-miterlimit="1" stroke-width="1" points="1403,349 1353,280 1376,389" style="fill:#834f14;stroke:#834f14;"></polygon><polygon stroke-linejoin="round" stroke-miterlimit="1" stroke-width="1" points="1377,154 1338,-9 1255,-9" style="fill:#865217;stroke:#865217;"></polygon><polygon stroke-linejoin="round" stroke-miterlimit="1" stroke-width="1" points="1396,466 1376,389 1274,434" style="fill:#844f15;stroke:#844f15;"></polygon><polygon stroke-linejoin="round" stroke-miterlimit="1" stroke-width="1" points="1396,466 1274,434 1344,521" style="fill:#845015;stroke:#845015;"></polygon><polygon stroke-linejoin="round" stroke-miterlimit="1" stroke-width="1" points="1376,389 1353,280 1236,380" style="fill:#875217;stroke:#875217;"></polygon><polygon stroke-linejoin="round" stroke-miterlimit="1" stroke-width="1" points="1376,389 1236,380 1274,434" style="fill:#845015;stroke:#845015;"></polygon><polygon stroke-linejoin="round" stroke-miterlimit="1" stroke-width="1" points="1377,154 1255,-9 1180,89" style="fill:#855116;stroke:#855116;"></polygon><polygon stroke-linejoin="round" stroke-miterlimit="1" stroke-width="1" points="1377,154 1180,89 1342,229" style="fill:#845015;stroke:#845015;"></polygon><polygon stroke-linejoin="round" stroke-miterlimit="1" stroke-width="1" points="1342,229 1180,89 1269,264" style="fill:#865116;stroke:#865116;"></polygon><polygon stroke-linejoin="round" stroke-miterlimit="1" stroke-width="1" points="1344,521 1215,530 1220,595" style="fill:#875217;stroke:#875217;"></polygon><polygon stroke-linejoin="round" stroke-miterlimit="1" stroke-width="1" points="1353,280 1269,264 1236,380" style="fill:#865116;stroke:#865116;"></polygon><polygon stroke-linejoin="round" stroke-miterlimit="1" stroke-width="1" points="1353,280 1342,229 1269,264" style="fill:#855015;stroke:#855015;"></polygon><polygon stroke-linejoin="round" stroke-miterlimit="1" stroke-width="1" points="1344,521 1274,434 1215,530" style="fill:#865116;stroke:#865116;"></polygon><polygon stroke-linejoin="round" stroke-miterlimit="1" stroke-width="1" points="1255,-9 1226,-9 1180,89" style="fill:#834f14;stroke:#834f14;"></polygon><polygon stroke-linejoin="round" stroke-miterlimit="1" stroke-width="1" points="1281,699 1220,595 1234,722" style="fill:#844f14;stroke:#844f14;"></polygon><polygon stroke-linejoin="round" stroke-miterlimit="1" stroke-width="1" points="1294,741 1284,720 1242,757" style="fill:#875318;stroke:#875318;"></polygon><polygon stroke-linejoin="round" stroke-miterlimit="1" stroke-width="1" points="1284,720 1281,699 1234,722" style="fill:#875318;stroke:#875318;"></polygon><polygon stroke-linejoin="round" stroke-miterlimit="1" stroke-width="1" points="1284,720 1234,722 1242,757" style="fill:#824d12;stroke:#824d12;"></polygon><polygon stroke-linejoin="round" stroke-miterlimit="1" stroke-width="1" points="1234,722 1220,595 1188,716" style="fill:#885419;stroke:#885419;"></polygon><polygon stroke-linejoin="round" stroke-miterlimit="1" stroke-width="1" points="1274,434 1168,505 1215,530" style="fill:#844f14;stroke:#844f14;"></polygon><polygon stroke-linejoin="round" stroke-miterlimit="1" stroke-width="1" points="1180,89 1036,159 1100,328" style="fill:#895419;stroke:#895419;"></polygon><polygon stroke-linejoin="round" stroke-miterlimit="1" stroke-width="1" points="1269,264 1100,328 1236,380" style="fill:#875217;stroke:#875217;"></polygon><polygon stroke-linejoin="round" stroke-miterlimit="1" stroke-width="1" points="1269,264 1180,89 1100,328" style="fill:#875217;stroke:#875217;"></polygon><polygon stroke-linejoin="round" stroke-miterlimit="1" stroke-width="1" points="1274,434 1236,380 1168,505" style="fill:#8a551a;stroke:#8a551a;"></polygon><polygon stroke-linejoin="round" stroke-miterlimit="1" stroke-width="1" points="1226,-9 1160,12 1180,89" style="fill:#885419;stroke:#885419;"></polygon><polygon stroke-linejoin="round" stroke-miterlimit="1" stroke-width="1" points="1180,89 1082,100 1036,159" style="fill:#865217;stroke:#865217;"></polygon><polygon stroke-linejoin="round" stroke-miterlimit="1" stroke-width="1" points="1220,595 1153,715 1188,716" style="fill:#865117;stroke:#865117;"></polygon><polygon stroke-linejoin="round" stroke-miterlimit="1" stroke-width="1" points="1242,757 1169,752 1195,803" style="fill:#845015;stroke:#845015;"></polygon><polygon stroke-linejoin="round" stroke-miterlimit="1" stroke-width="1" points="1242,757 1234,722 1188,716" style="fill:#875217;stroke:#875217;"></polygon><polygon stroke-linejoin="round" stroke-miterlimit="1" stroke-width="1" points="1242,757 1188,716 1169,752" style="fill:#865217;stroke:#865217;"></polygon><polygon stroke-linejoin="round" stroke-miterlimit="1" stroke-width="1" points="1195,803 1169,752 1187,801" style="fill:#855116;stroke:#855116;"></polygon><polygon stroke-linejoin="round" stroke-miterlimit="1" stroke-width="1" points="1236,380 1100,328 1168,505" style="fill:#895419;stroke:#895419;"></polygon><polygon stroke-linejoin="round" stroke-miterlimit="1" stroke-width="1" points="1226,-9 1135,-9 1160,12" style="fill:#885419;stroke:#885419;"></polygon><polygon stroke-linejoin="round" stroke-miterlimit="1" stroke-width="1" points="1220,595 1215,530 1168,505" style="fill:#855116;stroke:#855116;"></polygon><polygon stroke-linejoin="round" stroke-miterlimit="1" stroke-width="1" points="1220,595 1168,505 1077,542" style="fill:#89551a;stroke:#89551a;"></polygon><polygon stroke-linejoin="round" stroke-miterlimit="1" stroke-width="1" points="1220,595 1077,542 1153,715" style="fill:#895419;stroke:#895419;"></polygon><polygon stroke-linejoin="round" stroke-miterlimit="1" stroke-width="1" points="1187,801 1169,752 1179,804" style="fill:#7b470c;stroke:#7b470c;"></polygon><polygon stroke-linejoin="round" stroke-miterlimit="1" stroke-width="1" points="1195,803 1187,801 1179,804" style="fill:#7f4b10;stroke:#7f4b10;"></polygon><polygon stroke-linejoin="round" stroke-miterlimit="1" stroke-width="1" points="1168,505 1100,328 995,488" style="fill:#8a561b;stroke:#8a561b;"></polygon><polygon stroke-linejoin="round" stroke-miterlimit="1" stroke-width="1" points="1168,505 995,488 1077,542" style="fill:#8b571c;stroke:#8b571c;"></polygon><polygon stroke-linejoin="round" stroke-miterlimit="1" stroke-width="1" points="1188,716 1153,715 1169,752" style="fill:#8a551a;stroke:#8a551a;"></polygon><polygon stroke-linejoin="round" stroke-miterlimit="1" stroke-width="1" points="1169,752 1153,715 1149,719" style="fill:#946025;stroke:#946025;"></polygon><polygon stroke-linejoin="round" stroke-miterlimit="1" stroke-width="1" points="1180,89 1160,12 1082,100" style="fill:#865217;stroke:#865217;"></polygon><polygon stroke-linejoin="round" stroke-miterlimit="1" stroke-width="1" points="1153,715 1077,542 1028,555" style="fill:#8c571c;stroke:#8c571c;"></polygon><polygon stroke-linejoin="round" stroke-miterlimit="1" stroke-width="1" points="1179,804 1169,752 1149,719" style="fill:#784308;stroke:#784308;"></polygon><polygon stroke-linejoin="round" stroke-miterlimit="1" stroke-width="1" points="1179,804 1149,719 924,804" style="fill:#89551a;stroke:#89551a;"></polygon><polygon stroke-linejoin="round" stroke-miterlimit="1" stroke-width="1" points="1153,715 1028,555 1149,719" style="fill:#875318;stroke:#875318;"></polygon><polygon stroke-linejoin="round" stroke-miterlimit="1" stroke-width="1" points="1160,12 1059,59 1082,100" style="fill:#865117;stroke:#865117;"></polygon><polygon stroke-linejoin="round" stroke-miterlimit="1" stroke-width="1" points="1160,12 1135,-9 1059,59" style="fill:#855116;stroke:#855116;"></polygon><polygon stroke-linejoin="round" stroke-miterlimit="1" stroke-width="1" points="1149,719 1028,555 924,804" style="fill:#8a551b;stroke:#8a551b;"></polygon><polygon stroke-linejoin="round" stroke-miterlimit="1" stroke-width="1" points="1028,555 899,601 924,804" style="fill:#8e591e;stroke:#8e591e;"></polygon><polygon stroke-linejoin="round" stroke-miterlimit="1" stroke-width="1" points="1135,-9 899,-9 1059,59" style="fill:#895419;stroke:#895419;"></polygon><polygon stroke-linejoin="round" stroke-miterlimit="1" stroke-width="1" points="1059,59 899,-9 989,77" style="fill:#8b571c;stroke:#8b571c;"></polygon><polygon stroke-linejoin="round" stroke-miterlimit="1" stroke-width="1" points="1100,328 1036,159 858,335" style="fill:#8d581d;stroke:#8d581d;"></polygon><polygon stroke-linejoin="round" stroke-miterlimit="1" stroke-width="1" points="1100,328 858,335 995,488" style="fill:#8d591e;stroke:#8d591e;"></polygon><polygon stroke-linejoin="round" stroke-miterlimit="1" stroke-width="1" points="1036,159 848,203 858,335" style="fill:#8f5a20;stroke:#8f5a20;"></polygon><polygon stroke-linejoin="round" stroke-miterlimit="1" stroke-width="1" points="1077,542 995,488 1028,555" style="fill:#89551a;stroke:#89551a;"></polygon><polygon stroke-linejoin="round" stroke-miterlimit="1" stroke-width="1" points="1082,100 1059,59 1026,145" style="fill:#865217;stroke:#865217;"></polygon><polygon stroke-linejoin="round" stroke-miterlimit="1" stroke-width="1" points="1082,100 1026,145 1036,159" style="fill:#855116;stroke:#855116;"></polygon><polygon stroke-linejoin="round" stroke-miterlimit="1" stroke-width="1" points="1059,59 989,77 1026,145" style="fill:#885318;stroke:#885318;"></polygon><polygon stroke-linejoin="round" stroke-miterlimit="1" stroke-width="1" points="1036,159 1026,145 848,203" style="fill:#89541a;stroke:#89541a;"></polygon><polygon stroke-linejoin="round" stroke-miterlimit="1" stroke-width="1" points="1028,555 995,488 897,514" style="fill:#8d591e;stroke:#8d591e;"></polygon><polygon stroke-linejoin="round" stroke-miterlimit="1" stroke-width="1" points="1028,555 897,514 899,601" style="fill:#8f5b20;stroke:#8f5b20;"></polygon><polygon stroke-linejoin="round" stroke-miterlimit="1" stroke-width="1" points="995,488 858,335 897,514" style="fill:#905c21;stroke:#905c21;"></polygon><polygon stroke-linejoin="round" stroke-miterlimit="1" stroke-width="1" points="1026,145 989,77 848,203" style="fill:#8a561b;stroke:#8a561b;"></polygon><polygon stroke-linejoin="round" stroke-miterlimit="1" stroke-width="1" points="924,804 899,601 803,757" style="fill:#8e5a1f;stroke:#8e5a1f;"></polygon><polygon stroke-linejoin="round" stroke-miterlimit="1" stroke-width="1" points="989,77 815,126 848,203" style="fill:#8d591e;stroke:#8d591e;"></polygon><polygon stroke-linejoin="round" stroke-miterlimit="1" stroke-width="1" points="989,77 899,-9 815,126" style="fill:#8b571c;stroke:#8b571c;"></polygon><polygon stroke-linejoin="round" stroke-miterlimit="1" stroke-width="1" points="862,521 858,335 745,385" style="fill:#946025;stroke:#946025;"></polygon><polygon stroke-linejoin="round" stroke-miterlimit="1" stroke-width="1" points="897,514 858,335 862,521" style="fill:#956025;stroke:#956025;"></polygon><polygon stroke-linejoin="round" stroke-miterlimit="1" stroke-width="1" points="899,601 897,514 862,521" style="fill:#925e23;stroke:#925e23;"></polygon><polygon stroke-linejoin="round" stroke-miterlimit="1" stroke-width="1" points="899,601 803,611 803,757" style="fill:#935e24;stroke:#935e24;"></polygon><polygon stroke-linejoin="round" stroke-miterlimit="1" stroke-width="1" points="924,804 803,757 721,804" style="fill:#8e5a1f;stroke:#8e5a1f;"></polygon><polygon stroke-linejoin="round" stroke-miterlimit="1" stroke-width="1" points="803,611 762,727 803,757" style="fill:#915d22;stroke:#915d22;"></polygon><polygon stroke-linejoin="round" stroke-miterlimit="1" stroke-width="1" points="862,521 745,385 796,528" style="fill:#966227;stroke:#966227;"></polygon><polygon stroke-linejoin="round" stroke-miterlimit="1" stroke-width="1" points="899,-9 721,-9 815,126" style="fill:#8c571c;stroke:#8c571c;"></polygon><polygon stroke-linejoin="round" stroke-miterlimit="1" stroke-width="1" points="899,601 862,521 803,611" style="fill:#935e23;stroke:#935e23;"></polygon><polygon stroke-linejoin="round" stroke-miterlimit="1" stroke-width="1" points="721,-9 415,-9 516,25" style="fill:#8e5a1f;stroke:#8e5a1f;"></polygon><polygon stroke-linejoin="round" stroke-miterlimit="1" stroke-width="1" points="598,804 364,768 226,804" style="fill:#925e23;stroke:#925e23;"></polygon><polygon stroke-linejoin="round" stroke-miterlimit="1" stroke-width="1" points="796,528 745,385 773,523" style="fill:#8e5a1f;stroke:#8e5a1f;"></polygon><polygon stroke-linejoin="round" stroke-miterlimit="1" stroke-width="1" points="848,203 815,126 795,171" style="fill:#905b20;stroke:#905b20;"></polygon><polygon stroke-linejoin="round" stroke-miterlimit="1" stroke-width="1" points="858,335 848,203 795,171" style="fill:#925e23;stroke:#925e23;"></polygon><polygon stroke-linejoin="round" stroke-miterlimit="1" stroke-width="1" points="858,335 795,171 745,385" style="fill:#946025;stroke:#946025;"></polygon><polygon stroke-linejoin="round" stroke-miterlimit="1" stroke-width="1" points="862,521 796,528 803,611" style="fill:#915d22;stroke:#915d22;"></polygon><polygon stroke-linejoin="round" stroke-miterlimit="1" stroke-width="1" points="795,171 652,208 745,385" style="fill:#976227;stroke:#976227;"></polygon><polygon stroke-linejoin="round" stroke-miterlimit="1" stroke-width="1" points="795,171 721,-9 652,208" style="fill:#915d22;stroke:#915d22;"></polygon><polygon stroke-linejoin="round" stroke-miterlimit="1" stroke-width="1" points="803,611 796,528 773,523" style="fill:#935f24;stroke:#935f24;"></polygon><polygon stroke-linejoin="round" stroke-miterlimit="1" stroke-width="1" points="803,611 676,678 762,727" style="fill:#966126;stroke:#966126;"></polygon><polygon stroke-linejoin="round" stroke-miterlimit="1" stroke-width="1" points="815,126 721,-9 795,171" style="fill:#8f5a1f;stroke:#8f5a1f;"></polygon><polygon stroke-linejoin="round" stroke-miterlimit="1" stroke-width="1" points="803,757 762,727 721,804" style="fill:#8d581d;stroke:#8d581d;"></polygon><polygon stroke-linejoin="round" stroke-miterlimit="1" stroke-width="1" points="803,611 773,523 658,589" style="fill:#986328;stroke:#986328;"></polygon><polygon stroke-linejoin="round" stroke-miterlimit="1" stroke-width="1" points="803,611 658,589 676,678" style="fill:#976227;stroke:#976227;"></polygon><polygon stroke-linejoin="round" stroke-miterlimit="1" stroke-width="1" points="745,385 652,208 589,317" style="fill:#9b662c;stroke:#9b662c;"></polygon><polygon stroke-linejoin="round" stroke-miterlimit="1" stroke-width="1" points="773,523 745,385 658,589" style="fill:#9b662b;stroke:#9b662b;"></polygon><polygon stroke-linejoin="round" stroke-miterlimit="1" stroke-width="1" points="721,-9 524,79 652,208" style="fill:#915d22;stroke:#915d22;"></polygon><polygon stroke-linejoin="round" stroke-miterlimit="1" stroke-width="1" points="745,385 589,317 658,589" style="fill:#9f6a2f;stroke:#9f6a2f;"></polygon><polygon stroke-linejoin="round" stroke-miterlimit="1" stroke-width="1" points="762,727 676,678 721,804" style="fill:#915c21;stroke:#915c21;"></polygon><polygon stroke-linejoin="round" stroke-miterlimit="1" stroke-width="1" points="652,208 586,277 589,317" style="fill:#9b672c;stroke:#9b672c;"></polygon><polygon stroke-linejoin="round" stroke-miterlimit="1" stroke-width="1" points="658,589 589,317 477,514" style="fill:#a47035;stroke:#a47035;"></polygon><polygon stroke-linejoin="round" stroke-miterlimit="1" stroke-width="1" points="721,804 676,678 635,804" style="fill:#925e23;stroke:#925e23;"></polygon><polygon stroke-linejoin="round" stroke-miterlimit="1" stroke-width="1" points="721,-9 516,25 524,79" style="fill:#8d591e;stroke:#8d591e;"></polygon><polygon stroke-linejoin="round" stroke-miterlimit="1" stroke-width="1" points="598,804 437,756 364,768" style="fill:#8e591e;stroke:#8e591e;"></polygon><polygon stroke-linejoin="round" stroke-miterlimit="1" stroke-width="1" points="635,804 596,795 623,804" style="fill:#865217;stroke:#865217;"></polygon><polygon stroke-linejoin="round" stroke-miterlimit="1" stroke-width="1" points="635,804 566,755 596,795" style="fill:#935e23;stroke:#935e23;"></polygon><polygon stroke-linejoin="round" stroke-miterlimit="1" stroke-width="1" points="652,208 579,256 586,277" style="fill:#9c682d;stroke:#9c682d;"></polygon><polygon stroke-linejoin="round" stroke-miterlimit="1" stroke-width="1" points="676,678 566,755 635,804" style="fill:#945f24;stroke:#945f24;"></polygon><polygon stroke-linejoin="round" stroke-miterlimit="1" stroke-width="1" points="676,678 573,650 566,755" style="fill:#976227;stroke:#976227;"></polygon><polygon stroke-linejoin="round" stroke-miterlimit="1" stroke-width="1" points="676,678 658,589 573,650" style="fill:#986328;stroke:#986328;"></polygon><polygon stroke-linejoin="round" stroke-miterlimit="1" stroke-width="1" points="579,256 524,79 515,85" style="fill:#945f24;stroke:#945f24;"></polygon><polygon stroke-linejoin="round" stroke-miterlimit="1" stroke-width="1" points="652,208 524,79 579,256" style="fill:#986328;stroke:#986328;"></polygon><polygon stroke-linejoin="round" stroke-miterlimit="1" stroke-width="1" points="658,589 477,514 573,650" style="fill:#9e6a2f;stroke:#9e6a2f;"></polygon><polygon stroke-linejoin="round" stroke-miterlimit="1" stroke-width="1" points="623,804 596,795 608,804" style="fill:#8d591e;stroke:#8d591e;"></polygon><polygon stroke-linejoin="round" stroke-miterlimit="1" stroke-width="1" points="589,317 418,472 477,514" style="fill:#a67136;stroke:#a67136;"></polygon><polygon stroke-linejoin="round" stroke-miterlimit="1" stroke-width="1" points="589,317 405,353 418,472" style="fill:#a36e34;stroke:#a36e34;"></polygon><polygon stroke-linejoin="round" stroke-miterlimit="1" stroke-width="1" points="579,256 515,85 453,115" style="fill:#956126;stroke:#956126;"></polygon><polygon stroke-linejoin="round" stroke-miterlimit="1" stroke-width="1" points="608,804 596,795 598,804" style="fill:#915d22;stroke:#915d22;"></polygon><polygon stroke-linejoin="round" stroke-miterlimit="1" stroke-width="1" points="579,256 453,115 413,213" style="fill:#986429;stroke:#986429;"></polygon><polygon stroke-linejoin="round" stroke-miterlimit="1" stroke-width="1" points="598,804 596,795 566,755" style="fill:#875217;stroke:#875217;"></polygon><polygon stroke-linejoin="round" stroke-miterlimit="1" stroke-width="1" points="598,804 566,755 437,756" style="fill:#966227;stroke:#966227;"></polygon><polygon stroke-linejoin="round" stroke-miterlimit="1" stroke-width="1" points="589,317 586,277 406,327" style="fill:#a16c31;stroke:#a16c31;"></polygon><polygon stroke-linejoin="round" stroke-miterlimit="1" stroke-width="1" points="589,317 406,327 405,353" style="fill:#a06c31;stroke:#a06c31;"></polygon><polygon stroke-linejoin="round" stroke-miterlimit="1" stroke-width="1" points="573,650 437,756 566,755" style="fill:#976227;stroke:#976227;"></polygon><polygon stroke-linejoin="round" stroke-miterlimit="1" stroke-width="1" points="586,277 579,256 406,327" style="fill:#9e692e;stroke:#9e692e;"></polygon><polygon stroke-linejoin="round" stroke-miterlimit="1" stroke-width="1" points="579,256 413,213 406,327" style="fill:#9c682d;stroke:#9c682d;"></polygon><polygon stroke-linejoin="round" stroke-miterlimit="1" stroke-width="1" points="573,650 477,514 437,756" style="fill:#9b672c;stroke:#9b672c;"></polygon><polygon stroke-linejoin="round" stroke-miterlimit="1" stroke-width="1" points="477,514 286,617 437,756" style="fill:#9a662b;stroke:#9a662b;"></polygon><polygon stroke-linejoin="round" stroke-miterlimit="1" stroke-width="1" points="524,79 516,25 515,85" style="fill:#915d22;stroke:#915d22;"></polygon><polygon stroke-linejoin="round" stroke-miterlimit="1" stroke-width="1" points="516,25 453,115 515,85" style="fill:#905b20;stroke:#905b20;"></polygon><polygon stroke-linejoin="round" stroke-miterlimit="1" stroke-width="1" points="516,25 415,-9 453,115" style="fill:#905b20;stroke:#905b20;"></polygon><polygon stroke-linejoin="round" stroke-miterlimit="1" stroke-width="1" points="418,472 405,353 377,372" style="fill:#a06c31;stroke:#a06c31;"></polygon><polygon stroke-linejoin="round" stroke-miterlimit="1" stroke-width="1" points="437,756 286,617 364,768" style="fill:#966227;stroke:#966227;"></polygon><polygon stroke-linejoin="round" stroke-miterlimit="1" stroke-width="1" points="453,115 415,-9 383,65" style="fill:#915d22;stroke:#915d22;"></polygon><polygon stroke-linejoin="round" stroke-miterlimit="1" stroke-width="1" points="453,115 383,65 383,78" style="fill:#8d581d;stroke:#8d581d;"></polygon><polygon stroke-linejoin="round" stroke-miterlimit="1" stroke-width="1" points="477,514 418,472 286,617" style="fill:#9e6a2f;stroke:#9e6a2f;"></polygon><polygon stroke-linejoin="round" stroke-miterlimit="1" stroke-width="1" points="364,768 286,617 317,756" style="fill:#935e23;stroke:#935e23;"></polygon><polygon stroke-linejoin="round" stroke-miterlimit="1" stroke-width="1" points="453,115 371,188 413,213" style="fill:#945f25;stroke:#945f25;"></polygon><polygon stroke-linejoin="round" stroke-miterlimit="1" stroke-width="1" points="453,115 383,78 371,188" style="fill:#935f24;stroke:#935f24;"></polygon><polygon stroke-linejoin="round" stroke-miterlimit="1" stroke-width="1" points="413,213 324,240 406,327" style="fill:#9a652a;stroke:#9a652a;"></polygon><polygon stroke-linejoin="round" stroke-miterlimit="1" stroke-width="1" points="364,768 317,756 226,804" style="fill:#915c22;stroke:#915c22;"></polygon><polygon stroke-linejoin="round" stroke-miterlimit="1" stroke-width="1" points="413,213 371,188 324,240" style="fill:#9b662b;stroke:#9b662b;"></polygon><polygon stroke-linejoin="round" stroke-miterlimit="1" stroke-width="1" points="415,-9 104,-3 292,112" style="fill:#8b571c;stroke:#8b571c;"></polygon><polygon stroke-linejoin="round" stroke-miterlimit="1" stroke-width="1" points="418,472 377,372 232,440" style="fill:#9d692e;stroke:#9d692e;"></polygon><polygon stroke-linejoin="round" stroke-miterlimit="1" stroke-width="1" points="418,472 232,440 286,617" style="fill:#9b672c;stroke:#9b672c;"></polygon><polygon stroke-linejoin="round" stroke-miterlimit="1" stroke-width="1" points="415,-9 292,112 383,65" style="fill:#8a561b;stroke:#8a561b;"></polygon><polygon stroke-linejoin="round" stroke-miterlimit="1" stroke-width="1" points="383,78 292,112 371,188" style="fill:#915d22;stroke:#915d22;"></polygon><polygon stroke-linejoin="round" stroke-miterlimit="1" stroke-width="1" points="406,327 377,372 405,353" style="fill:#a06c31;stroke:#a06c31;"></polygon><polygon stroke-linejoin="round" stroke-miterlimit="1" stroke-width="1" points="406,327 324,240 377,372" style="fill:#9d682d;stroke:#9d682d;"></polygon><polygon stroke-linejoin="round" stroke-miterlimit="1" stroke-width="1" points="377,372 324,240 175,374" style="fill:#996429;stroke:#996429;"></polygon><polygon stroke-linejoin="round" stroke-miterlimit="1" stroke-width="1" points="383,78 383,65 292,112" style="fill:#8a551b;stroke:#8a551b;"></polygon><polygon stroke-linejoin="round" stroke-miterlimit="1" stroke-width="1" points="377,372 175,374 232,440" style="fill:#976328;stroke:#976328;"></polygon><polygon stroke-linejoin="round" stroke-miterlimit="1" stroke-width="1" points="371,188 292,112 324,240" style="fill:#935f24;stroke:#935f24;"></polygon><polygon stroke-linejoin="round" stroke-miterlimit="1" stroke-width="1" points="317,756 286,617 246,638" style="fill:#915c21;stroke:#915c21;"></polygon><polygon stroke-linejoin="round" stroke-miterlimit="1" stroke-width="1" points="286,617 232,440 211,629" style="fill:#935f24;stroke:#935f24;"></polygon><polygon stroke-linejoin="round" stroke-miterlimit="1" stroke-width="1" points="317,756 246,638 226,804" style="fill:#905c21;stroke:#905c21;"></polygon><polygon stroke-linejoin="round" stroke-miterlimit="1" stroke-width="1" points="324,240 292,112 109,248" style="fill:#905c21;stroke:#905c21;"></polygon><polygon stroke-linejoin="round" stroke-miterlimit="1" stroke-width="1" points="324,240 109,248 175,374" style="fill:#915d22;stroke:#915d22;"></polygon><polygon stroke-linejoin="round" stroke-miterlimit="1" stroke-width="1" points="226,804 138,771 4,804" style="fill:#8e5a1f;stroke:#8e5a1f;"></polygon><polygon stroke-linejoin="round" stroke-miterlimit="1" stroke-width="1" points="232,440 106,567 211,629" style="fill:#945f24;stroke:#945f24;"></polygon><polygon stroke-linejoin="round" stroke-miterlimit="1" stroke-width="1" points="246,638 138,771 226,804" style="fill:#8f5a1f;stroke:#8f5a1f;"></polygon><polygon stroke-linejoin="round" stroke-miterlimit="1" stroke-width="1" points="246,638 211,629 138,771" style="fill:#8e5a1f;stroke:#8e5a1f;"></polygon><polygon stroke-linejoin="round" stroke-miterlimit="1" stroke-width="1" points="286,617 211,629 246,638" style="fill:#946025;stroke:#946025;"></polygon><polygon stroke-linejoin="round" stroke-miterlimit="1" stroke-width="1" points="292,112 42,136 109,248" style="fill:#8d581d;stroke:#8d581d;"></polygon><polygon stroke-linejoin="round" stroke-miterlimit="1" stroke-width="1" points="292,112 104,-3 42,136" style="fill:#8b571c;stroke:#8b571c;"></polygon><polygon stroke-linejoin="round" stroke-miterlimit="1" stroke-width="1" points="232,440 175,374 106,567" style="fill:#915d22;stroke:#915d22;"></polygon><polygon stroke-linejoin="round" stroke-miterlimit="1" stroke-width="1" points="138,771 63,601 25,689" style="fill:#8c581d;stroke:#8c581d;"></polygon><polygon stroke-linejoin="round" stroke-miterlimit="1" stroke-width="1" points="175,374 4,469 106,567" style="fill:#8f5b20;stroke:#8f5b20;"></polygon><polygon stroke-linejoin="round" stroke-miterlimit="1" stroke-width="1" points="211,629 63,601 138,771" style="fill:#8f5a1f;stroke:#8f5a1f;"></polygon><polygon stroke-linejoin="round" stroke-miterlimit="1" stroke-width="1" points="211,629 106,567 63,601" style="fill:#8c571d;stroke:#8c571d;"></polygon><polygon stroke-linejoin="round" stroke-miterlimit="1" stroke-width="1" points="106,567 4,469 4,474" style="fill:#784308;stroke:#784308;"></polygon><polygon stroke-linejoin="round" stroke-miterlimit="1" stroke-width="1" points="175,374 4,398 4,469" style="fill:#8d591e;stroke:#8d591e;"></polygon><polygon stroke-linejoin="round" stroke-miterlimit="1" stroke-width="1" points="175,374 109,248 4,311" style="fill:#8e5a1f;stroke:#8e5a1f;"></polygon><polygon stroke-linejoin="round" stroke-miterlimit="1" stroke-width="1" points="175,374 4,311 4,398" style="fill:#8f5a1f;stroke:#8f5a1f;"></polygon><polygon stroke-linejoin="round" stroke-miterlimit="1" stroke-width="1" points="63,601 27,638 25,689" style="fill:#875318;stroke:#875318;"></polygon><polygon stroke-linejoin="round" stroke-miterlimit="1" stroke-width="1" points="104,-3 4,66 42,136" style="fill:#8d591e;stroke:#8d591e;"></polygon><polygon stroke-linejoin="round" stroke-miterlimit="1" stroke-width="1" points="106,567 4,474 4,517" style="fill:#8a561b;stroke:#8a561b;"></polygon><polygon stroke-linejoin="round" stroke-miterlimit="1" stroke-width="1" points="138,771 25,689 4,804" style="fill:#8c571c;stroke:#8c571c;"></polygon><polygon stroke-linejoin="round" stroke-miterlimit="1" stroke-width="1" points="104,-3 5,2 4,66" style="fill:#885318;stroke:#885318;"></polygon><polygon stroke-linejoin="round" stroke-miterlimit="1" stroke-width="1" points="106,567 4,517 63,601" style="fill:#8c581d;stroke:#8c581d;"></polygon><polygon stroke-linejoin="round" stroke-miterlimit="1" stroke-width="1" points="109,248 4,257 4,311" style="fill:#8e5a1f;stroke:#8e5a1f;"></polygon><polygon stroke-linejoin="round" stroke-miterlimit="1" stroke-width="1" points="109,248 42,136 4,225" style="fill:#8d581d;stroke:#8d581d;"></polygon><polygon stroke-linejoin="round" stroke-miterlimit="1" stroke-width="1" points="109,248 4,225 4,257" style="fill:#8b561c;stroke:#8b561c;"></polygon><polygon stroke-linejoin="round" stroke-miterlimit="1" stroke-width="1" points="104,-3 4,-9 5,2" style="fill:#8b571c;stroke:#8b571c;"></polygon><polygon stroke-linejoin="round" stroke-miterlimit="1" stroke-width="1" points="63,601 4,517 27,638" style="fill:#8c581d;stroke:#8c581d;"></polygon><polygon stroke-linejoin="round" stroke-miterlimit="1" stroke-width="1" points="42,136 4,66 4,225" style="fill:#8c581d;stroke:#8c581d;"></polygon><polygon stroke-linejoin="round" stroke-miterlimit="1" stroke-width="1" points="27,638 4,517 25,689" style="fill:#915d22;stroke:#915d22;"></polygon><polygon stroke-linejoin="round" stroke-miterlimit="1" stroke-width="1" points="25,689 4,517 4,804" style="fill:#875318;stroke:#875318;"></polygon><polygon stroke-linejoin="round" stroke-miterlimit="1" stroke-width="1" points="5,2 4,-9 4,66" style="fill:#89551a;stroke:#89551a;"></polygon></svg>